<svg xmlns="http://www.w3.org/2000/svg" version="1.1" viewBox="-5.0 -10.0 110.0 135.0">
 <path d="m41.383 50.641h17.234c10.363 0 19.793 4.1953 26.684 10.965 6.8984 6.7812 11.246 16.156 11.426 26.5 0.019532 1.0312-0.15625 2.0078-0.51562 2.9141-0.36328 0.91016-0.91016 1.7422-1.6328 2.4766-0.72656 0.73828-1.5469 1.3008-2.4492 1.6797-0.89844 0.37891-1.8711 0.57031-2.9062 0.57031h-78.445c-1.0312 0-2.0039-0.19141-2.9062-0.57031-0.90234-0.37891-1.7227-0.94141-2.4492-1.6797-0.72266-0.73438-1.2695-1.5625-1.6328-2.4766-0.35937-0.90625-0.53516-1.8828-0.51562-2.9141 0.17578-10.344 4.5273-19.719 11.426-26.5 6.8867-6.7695 16.324-10.965 26.684-10.965zm8.6172-46.383c5.918 0 11.277 2.3984 15.156 6.2773 3.8867 3.8867 6.2852 9.2461 6.2852 15.164s-2.3984 11.277-6.2773 15.156c-3.8867 3.8867-9.2461 6.2852-15.164 6.2852s-11.277-2.3984-15.156-6.2773c-3.8867-3.8867-6.2852-9.2461-6.2852-15.164s2.3984-11.277 6.2773-15.156c3.8867-3.8867 9.2461-6.2852 15.164-6.2852z"/>
<text x="0.0" y="117.5" font-size="5.0" font-weight="bold" font-family="Arbeit Regular, Helvetica, Arial-Unicode, Arial, Sans-serif" fill="#000000">Created by Mashudi</text><text x="0.0" y="122.5" font-size="5.0" font-weight="bold" font-family="Arbeit Regular, Helvetica, Arial-Unicode, Arial, Sans-serif" fill="#000000">from Noun Project</text></svg>